<?xml version="1.0" encoding="utf-8"?>
<!-- Svg Vector Icons : http://www.onlinewebfonts.com/icon -->
<!DOCTYPE svg PUBLIC "-//W3C//DTD SVG 1.1//EN" "http://www.w3.org/Graphics/SVG/1.1/DTD/svg11.dtd">
<svg version="1.1" xmlns="http://www.w3.org/2000/svg" xmlns:xlink="http://www.w3.org/1999/xlink" x="0px" y="0px" viewBox="0 0 1000 1000" enable-background="new 0 0 1000 1000" xml:space="preserve">
<metadata> Svg Vector Icons : http://www.onlinewebfonts.com/icon </metadata>
<g><path d="M500,10C229.4,10,10,229.4,10,500s219.4,490,490,490c270.6,0,490-219.4,490-490S770.6,10,500,10z M308.8,532.8l-0.7,0.2c-0.5,0.1-1,0.2-1.5,0.4l-3.8,1.3c-47.3,15.5-78.8,51.7-82.2,93.3h84.8v15.2H205.1v-7.6c0-51,35.8-95.9,91.3-114.7l1-0.4c2.2-0.9,4.6-1.5,7.1-2.1c1.8-0.5,3.4-0.9,5.1-1.4c5.3-1.7,7-3.6,7-8.6c0-6.2-7.1-10.8-10.2-12.4c-0.3-0.1-3.4-1.7-3.4-1.7c-30.8-15.7-50.8-49.2-50.8-85.3c0-52.2,40.2-94.7,89.6-94.7c11.9,0,23.5,2.4,34.4,7.2l-6.1,13.9c-9-3.9-18.5-5.9-28.3-5.9c-41,0-74.4,35.7-74.4,79.6c0,30.5,16.7,58.6,42.5,71.8c0.1,0,2.5,1.3,3.2,1.6c12.2,6.6,18.7,15.7,18.7,26c0,11.7-6.1,19.5-18.1,23.2C311.7,531.9,310.2,532.3,308.8,532.8z M714.6,685.2H320.2v-7.6c0-69.1,48.7-129.9,124.2-155.5l1.3-0.6c2.8-1.2,6-2,9.3-2.8c2.6-0.7,4.8-1.3,7-1.9c8.6-2.7,11.8-6.6,11.8-14.6c0-9.8-9.8-16.5-15.6-19.7c-0.5-0.2-4.7-2.4-4.7-2.4c-41.5-21.1-68.4-66.3-68.4-115c0-70.4,54.1-127.6,120.6-127.6c66.5,0,120.6,57.3,120.6,127.6c0,49.6-31.4,92.1-60.5,110.6c-18.1,11.5-21.1,15.8-21.1,21.6c0,16,25.6,18.9,25.8,19l1,0.2c84.2,20.4,143.1,86.6,143.1,161L714.6,685.2L714.6,685.2z M812.2,643.1h-79.3v-15.2h63.9c-3.4-41.7-34.9-77.8-82.2-93.3l-4.6-1.5c-0.2,0-0.5-0.1-0.7-0.2l-0.8-0.2c-1.5-0.4-2.9-0.8-4.4-1.2c-12.4-3.8-18.5-11.6-18.5-23.3c0-10.3,6.5-19.4,18.2-25.8c1.2-0.6,3.6-1.8,3.6-1.8c25.9-13.2,42.6-41.4,42.6-71.8c0-43.9-33.4-79.6-74.4-79.6c-9.8,0-19.3,2-28.3,6l-6.1-13.9c10.9-4.8,22.5-7.2,34.4-7.2c49.4,0,89.6,42.5,89.6,94.7c0,36.1-19.9,69.6-50.8,85.3c0,0-3.1,1.6-3.8,1.9c-3.3,1.8-9.7,6.2-9.7,12.2c0,5,1.7,6.9,7.4,8.7c1.2,0.3,2.8,0.7,4.4,1.2c2.7,0.7,5.1,1.2,7.3,2.2l1.2,0.5c55.4,18.9,91.1,63.8,91.1,114.7V643.1z"/><path d="M568.4,531.4c-14.7-1.7-38.9-10.7-38.9-34c0-15.4,11.6-24,28.1-34.4c25.8-16.3,53.5-53.9,53.5-97.8c0-62-47.3-112.5-105.4-112.5c-58.1,0-105.4,50.5-105.4,112.5c0,43,23.6,82.9,60.2,101.5c0.1,0,3.6,1.9,4.5,2.3c9.3,5,24.1,15.6,24.1,33.2c0,22.1-17.3,27.5-22.9,29.2c-2.5,0.6-4.5,1.2-6.6,1.8l-0.9,0.2c-0.9,0.2-1.7,0.4-2.6,0.6l-4.9,1.7c-67.4,22.2-112,74.3-115.5,134.2v0h363.6C695.3,605.9,642.7,549.6,568.4,531.4z"/></g>
</svg>